<mxfile host="app.diagrams.net" modified="2022-04-12T05:13:53.635Z" agent="5.0 (Windows NT 6.3; Win64; x64) AppleWebKit/537.36 (KHTML, like Gecko) Chrome/100.0.4896.60 Safari/537.36" etag="XMmvZ4Yj62Ojh16f_SOn" version="17.4.3" type="github">
  <diagram id="R2lEEEUBdFMjLlhIrx00" name="Page-1">
    <mxGraphModel dx="862" dy="1550" grid="1" gridSize="10" guides="1" tooltips="1" connect="1" arrows="1" fold="1" page="1" pageScale="1" pageWidth="850" pageHeight="1100" math="0" shadow="0" extFonts="Permanent Marker^https://fonts.googleapis.com/css?family=Permanent+Marker">
      <root>
        <mxCell id="0" />
        <mxCell id="1" parent="0" />
        <mxCell id="tQA0rMHfryOUCzaLLiwX-16" style="edgeStyle=orthogonalEdgeStyle;rounded=0;orthogonalLoop=1;jettySize=auto;html=1;exitX=0.5;exitY=1;exitDx=0;exitDy=0;entryX=0.5;entryY=0;entryDx=0;entryDy=0;endArrow=baseDash;endFill=0;" parent="1" source="p_iDzna9J8F04enoA1Oq-1" target="tQA0rMHfryOUCzaLLiwX-14" edge="1">
          <mxGeometry relative="1" as="geometry" />
        </mxCell>
        <mxCell id="p_iDzna9J8F04enoA1Oq-1" value="Usuario" style="rounded=0;whiteSpace=wrap;html=1;" parent="1" vertex="1">
          <mxGeometry x="290" y="-20" width="120" height="60" as="geometry" />
        </mxCell>
        <mxCell id="p_iDzna9J8F04enoA1Oq-2" value="&lt;u&gt;nameUser&lt;/u&gt;" style="ellipse;whiteSpace=wrap;html=1;" parent="1" vertex="1">
          <mxGeometry x="160" y="-50" width="100" height="30" as="geometry" />
        </mxCell>
        <mxCell id="p_iDzna9J8F04enoA1Oq-4" value="password" style="ellipse;whiteSpace=wrap;html=1;" parent="1" vertex="1">
          <mxGeometry x="160" y="-20" width="100" height="30" as="geometry" />
        </mxCell>
        <mxCell id="p_iDzna9J8F04enoA1Oq-5" value="&lt;span&gt;email&lt;/span&gt;" style="ellipse;whiteSpace=wrap;html=1;" parent="1" vertex="1">
          <mxGeometry x="160" y="10" width="100" height="30" as="geometry" />
        </mxCell>
        <mxCell id="p_iDzna9J8F04enoA1Oq-6" value="nombre" style="ellipse;whiteSpace=wrap;html=1;" parent="1" vertex="1">
          <mxGeometry x="160" y="40" width="100" height="30" as="geometry" />
        </mxCell>
        <mxCell id="p_iDzna9J8F04enoA1Oq-9" value="" style="endArrow=none;html=1;rounded=0;exitX=-0.008;exitY=0.117;exitDx=0;exitDy=0;exitPerimeter=0;entryX=1;entryY=0.5;entryDx=0;entryDy=0;" parent="1" source="p_iDzna9J8F04enoA1Oq-1" target="p_iDzna9J8F04enoA1Oq-2" edge="1">
          <mxGeometry width="50" height="50" relative="1" as="geometry">
            <mxPoint x="560" y="170" as="sourcePoint" />
            <mxPoint x="610" y="120" as="targetPoint" />
          </mxGeometry>
        </mxCell>
        <mxCell id="p_iDzna9J8F04enoA1Oq-10" value="" style="endArrow=none;html=1;rounded=0;exitX=0;exitY=0.25;exitDx=0;exitDy=0;entryX=1;entryY=0.5;entryDx=0;entryDy=0;" parent="1" source="p_iDzna9J8F04enoA1Oq-1" target="p_iDzna9J8F04enoA1Oq-4" edge="1">
          <mxGeometry width="50" height="50" relative="1" as="geometry">
            <mxPoint x="299.03999999999996" y="-2.980000000000018" as="sourcePoint" />
            <mxPoint x="270" y="-25" as="targetPoint" />
          </mxGeometry>
        </mxCell>
        <mxCell id="p_iDzna9J8F04enoA1Oq-11" value="" style="endArrow=none;html=1;rounded=0;entryX=1;entryY=0.5;entryDx=0;entryDy=0;" parent="1" target="p_iDzna9J8F04enoA1Oq-5" edge="1">
          <mxGeometry width="50" height="50" relative="1" as="geometry">
            <mxPoint x="290" y="25" as="sourcePoint" />
            <mxPoint x="280" y="-15" as="targetPoint" />
          </mxGeometry>
        </mxCell>
        <mxCell id="p_iDzna9J8F04enoA1Oq-12" value="" style="endArrow=none;html=1;rounded=0;entryX=1;entryY=0.5;entryDx=0;entryDy=0;" parent="1" target="p_iDzna9J8F04enoA1Oq-6" edge="1">
          <mxGeometry width="50" height="50" relative="1" as="geometry">
            <mxPoint x="290" y="40" as="sourcePoint" />
            <mxPoint x="290" y="-5" as="targetPoint" />
          </mxGeometry>
        </mxCell>
        <mxCell id="tQA0rMHfryOUCzaLLiwX-3" value="" style="edgeStyle=orthogonalEdgeStyle;rounded=0;orthogonalLoop=1;jettySize=auto;html=1;endArrow=baseDash;endFill=0;exitX=1;exitY=0.25;exitDx=0;exitDy=0;" parent="1" source="tQA0rMHfryOUCzaLLiwX-1" target="tQA0rMHfryOUCzaLLiwX-2" edge="1">
          <mxGeometry relative="1" as="geometry">
            <mxPoint x="510" y="210" as="sourcePoint" />
          </mxGeometry>
        </mxCell>
        <mxCell id="tQA0rMHfryOUCzaLLiwX-5" value="" style="edgeStyle=orthogonalEdgeStyle;rounded=0;orthogonalLoop=1;jettySize=auto;html=1;endArrow=baseDash;endFill=0;" parent="1" source="tQA0rMHfryOUCzaLLiwX-1" target="tQA0rMHfryOUCzaLLiwX-4" edge="1">
          <mxGeometry relative="1" as="geometry" />
        </mxCell>
        <mxCell id="tQA0rMHfryOUCzaLLiwX-9" value="" style="edgeStyle=orthogonalEdgeStyle;rounded=0;orthogonalLoop=1;jettySize=auto;html=1;endArrow=baseDash;endFill=0;exitX=1;exitY=0.75;exitDx=0;exitDy=0;" parent="1" source="tQA0rMHfryOUCzaLLiwX-1" target="tQA0rMHfryOUCzaLLiwX-8" edge="1">
          <mxGeometry relative="1" as="geometry" />
        </mxCell>
        <mxCell id="tQA0rMHfryOUCzaLLiwX-11" value="" style="edgeStyle=orthogonalEdgeStyle;rounded=0;orthogonalLoop=1;jettySize=auto;html=1;endArrow=baseDash;endFill=0;exitX=1;exitY=0.75;exitDx=0;exitDy=0;" parent="1" source="tQA0rMHfryOUCzaLLiwX-1" target="tQA0rMHfryOUCzaLLiwX-10" edge="1">
          <mxGeometry relative="1" as="geometry">
            <Array as="points">
              <mxPoint x="500" y="250" />
              <mxPoint x="520" y="250" />
              <mxPoint x="520" y="270" />
              <mxPoint x="540" y="270" />
              <mxPoint x="540" y="285" />
            </Array>
          </mxGeometry>
        </mxCell>
        <mxCell id="tQA0rMHfryOUCzaLLiwX-15" value="" style="edgeStyle=orthogonalEdgeStyle;rounded=0;orthogonalLoop=1;jettySize=auto;html=1;endArrow=baseDash;endFill=0;" parent="1" source="tQA0rMHfryOUCzaLLiwX-1" target="tQA0rMHfryOUCzaLLiwX-14" edge="1">
          <mxGeometry relative="1" as="geometry" />
        </mxCell>
        <mxCell id="tQA0rMHfryOUCzaLLiwX-1" value="Servicio" style="rounded=0;whiteSpace=wrap;html=1;" parent="1" vertex="1">
          <mxGeometry x="380" y="195" width="120" height="60" as="geometry" />
        </mxCell>
        <mxCell id="tQA0rMHfryOUCzaLLiwX-2" value="&lt;u&gt;id&lt;/u&gt;" style="ellipse;whiteSpace=wrap;html=1;rounded=0;" parent="1" vertex="1">
          <mxGeometry x="580" y="180" width="120" height="30" as="geometry" />
        </mxCell>
        <mxCell id="tQA0rMHfryOUCzaLLiwX-4" value="name" style="ellipse;whiteSpace=wrap;html=1;rounded=0;" parent="1" vertex="1">
          <mxGeometry x="580" y="210" width="120" height="35" as="geometry" />
        </mxCell>
        <mxCell id="tQA0rMHfryOUCzaLLiwX-8" value="description" style="ellipse;whiteSpace=wrap;html=1;rounded=0;" parent="1" vertex="1">
          <mxGeometry x="580" y="245" width="120" height="25" as="geometry" />
        </mxCell>
        <mxCell id="tQA0rMHfryOUCzaLLiwX-10" value="price" style="ellipse;whiteSpace=wrap;html=1;rounded=0;" parent="1" vertex="1">
          <mxGeometry x="580" y="270" width="120" height="30" as="geometry" />
        </mxCell>
        <mxCell id="tQA0rMHfryOUCzaLLiwX-14" value="solicita" style="rhombus;whiteSpace=wrap;html=1;rounded=0;" parent="1" vertex="1">
          <mxGeometry x="415" y="90" width="50" height="52.5" as="geometry" />
        </mxCell>
        <mxCell id="tQA0rMHfryOUCzaLLiwX-17" value="1" style="text;html=1;align=center;verticalAlign=middle;resizable=0;points=[];autosize=1;strokeColor=none;fillColor=none;" parent="1" vertex="1">
          <mxGeometry x="415" y="170" width="20" height="20" as="geometry" />
        </mxCell>
        <mxCell id="tQA0rMHfryOUCzaLLiwX-18" value="n" style="text;html=1;align=center;verticalAlign=middle;resizable=0;points=[];autosize=1;strokeColor=none;fillColor=none;" parent="1" vertex="1">
          <mxGeometry x="350" y="40" width="20" height="20" as="geometry" />
        </mxCell>
        <mxCell id="Gmgm-6kKUamQuGTKlXEU-3" style="edgeStyle=orthogonalEdgeStyle;rounded=0;orthogonalLoop=1;jettySize=auto;html=1;exitX=0.5;exitY=1;exitDx=0;exitDy=0;entryX=0.5;entryY=0;entryDx=0;entryDy=0;endArrow=baseDash;endFill=0;" parent="1" source="tQA0rMHfryOUCzaLLiwX-1" target="Gmgm-6kKUamQuGTKlXEU-5" edge="1">
          <mxGeometry relative="1" as="geometry">
            <mxPoint x="240" y="280" as="sourcePoint" />
          </mxGeometry>
        </mxCell>
        <mxCell id="Gmgm-6kKUamQuGTKlXEU-4" value="" style="edgeStyle=orthogonalEdgeStyle;rounded=0;orthogonalLoop=1;jettySize=auto;html=1;endArrow=baseDash;endFill=0;exitX=0.5;exitY=0;exitDx=0;exitDy=0;" parent="1" source="Gmgm-6kKUamQuGTKlXEU-8" target="Gmgm-6kKUamQuGTKlXEU-5" edge="1">
          <mxGeometry relative="1" as="geometry">
            <mxPoint x="330" y="435" as="sourcePoint" />
          </mxGeometry>
        </mxCell>
        <mxCell id="Gmgm-6kKUamQuGTKlXEU-5" value="requiere" style="rhombus;whiteSpace=wrap;html=1;rounded=0;" parent="1" vertex="1">
          <mxGeometry x="340" y="310" width="50" height="52.5" as="geometry" />
        </mxCell>
        <mxCell id="Gmgm-6kKUamQuGTKlXEU-6" value="1" style="text;html=1;align=center;verticalAlign=middle;resizable=0;points=[];autosize=1;strokeColor=none;fillColor=none;" parent="1" vertex="1">
          <mxGeometry x="445" y="255" width="20" height="20" as="geometry" />
        </mxCell>
        <mxCell id="Gmgm-6kKUamQuGTKlXEU-7" value="n" style="text;html=1;align=center;verticalAlign=middle;resizable=0;points=[];autosize=1;strokeColor=none;fillColor=none;" parent="1" vertex="1">
          <mxGeometry x="340" y="390" width="20" height="20" as="geometry" />
        </mxCell>
        <mxCell id="Gmgm-6kKUamQuGTKlXEU-8" value="Lenguaje" style="rounded=0;whiteSpace=wrap;html=1;" parent="1" vertex="1">
          <mxGeometry x="305" y="410" width="120" height="60" as="geometry" />
        </mxCell>
        <mxCell id="Gmgm-6kKUamQuGTKlXEU-9" value="&lt;u&gt;name&lt;/u&gt;" style="ellipse;whiteSpace=wrap;html=1;" parent="1" vertex="1">
          <mxGeometry x="175" y="410" width="100" height="30" as="geometry" />
        </mxCell>
        <mxCell id="Gmgm-6kKUamQuGTKlXEU-10" value="description" style="ellipse;whiteSpace=wrap;html=1;" parent="1" vertex="1">
          <mxGeometry x="175" y="440" width="100" height="30" as="geometry" />
        </mxCell>
        <mxCell id="Gmgm-6kKUamQuGTKlXEU-13" value="" style="endArrow=none;html=1;rounded=0;exitX=0;exitY=0.25;exitDx=0;exitDy=0;entryX=1;entryY=0.5;entryDx=0;entryDy=0;" parent="1" source="Gmgm-6kKUamQuGTKlXEU-8" target="Gmgm-6kKUamQuGTKlXEU-9" edge="1">
          <mxGeometry width="50" height="50" relative="1" as="geometry">
            <mxPoint x="575" y="600" as="sourcePoint" />
            <mxPoint x="625" y="550" as="targetPoint" />
          </mxGeometry>
        </mxCell>
        <mxCell id="Gmgm-6kKUamQuGTKlXEU-14" value="" style="endArrow=none;html=1;rounded=0;exitX=0;exitY=0.75;exitDx=0;exitDy=0;entryX=1;entryY=0.5;entryDx=0;entryDy=0;" parent="1" source="Gmgm-6kKUamQuGTKlXEU-8" target="Gmgm-6kKUamQuGTKlXEU-10" edge="1">
          <mxGeometry width="50" height="50" relative="1" as="geometry">
            <mxPoint x="314.03999999999996" y="427.02" as="sourcePoint" />
            <mxPoint x="285" y="405" as="targetPoint" />
          </mxGeometry>
        </mxCell>
      </root>
    </mxGraphModel>
  </diagram>
</mxfile>
